<?xml version="1.0" standalone="no"?><svg xmlns="http://www.w3.org/2000/svg" viewBox="0 0 1440 320"><path fill="#ab88d9" fill-opacity="1" d="M0,64L30,85.3C60,107,120,149,180,165.3C240,181,300,171,360,186.7C420,203,480,245,540,229.3C600,213,660,139,720,117.3C780,96,840,128,900,160C960,192,1020,224,1080,240C1140,256,1200,256,1260,224C1320,192,1380,128,1410,96L1440,64L1440,320L1410,320C1380,320,1320,320,1260,320C1200,320,1140,320,1080,320C1020,320,960,320,900,320C840,320,780,320,720,320C660,320,600,320,540,320C480,320,420,320,360,320C300,320,240,320,180,320C120,320,60,320,30,320L0,320Z"></path></svg>